<svg id="svg" version="1.1" width="400" height="400" viewBox="0 0 400 400" xmlns="http://www.w3.org/2000/svg" xmlns:xlink="http://www.w3.org/1999/xlink" >
<g id="svgg">
<path id="path0" d="M222.656 57.842 C 202.214 59.290,184.221 66.358,168.945 78.941 C 112.104 125.760,86.574 218.483,110.557 290.999 C 119.453 317.895,141.597 336.203,172.266 342.018 C 175.799 342.688,194.002 343.284,195.954 342.794 C 198.912 342.052,195.933 341.406,187.679 340.999 C 150.465 339.164,122.946 311.057,116.433 268.231 C 108.343 215.038,118.789 166.075,148.084 119.868 C 176.042 75.771,228.994 55.455,267.426 74.081 C 278.182 79.294,293.074 93.177,296.697 101.368 C 298.582 105.631,299.177 101.988,297.474 96.602 C 289.672 71.919,257.706 55.359,222.656 57.842 M227.930 72.694 C 192.850 76.338,161.054 101.085,143.659 138.281 C 134.418 158.040,126.259 189.799,126.646 204.497 C 126.828 211.380,128.084 209.800,130.532 199.610 C 139.173 163.637,163.256 123.210,187.109 104.635 C 210.510 86.412,240.663 80.673,260.611 90.646 C 282.545 101.611,290.143 123.510,279.661 145.553 C 276.274 152.673,268.928 160.490,262.988 163.295 C 256.861 166.187,256.119 166.596,256.283 166.992 C 256.602 167.759,262.167 167.310,265.115 166.280 C 284.081 159.649,298.331 132.504,293.418 112.366 C 286.915 85.708,259.943 69.369,227.930 72.694 M232.031 91.654 C 186.759 95.912,147.312 149.326,140.189 216.016 C 134.502 269.254,148.598 306.857,177.897 316.612 C 200.354 324.088,227.326 317.742,251.060 299.397 C 252.293 298.444,252.460 297.266,251.362 297.266 C 251.083 297.266,247.894 298.747,244.275 300.557 C 211.091 317.156,176.661 313.830,162.862 292.692 C 147.032 268.442,146.727 215.634,162.178 174.219 C 178.835 129.569,208.913 102.083,239.844 103.245 C 266.968 104.264,278.799 123.084,265.383 143.871 C 259.183 153.476,248.333 160.361,240.511 159.651 C 237.561 159.384,237.245 160.983,240.039 162.041 C 251.488 166.376,268.662 155.769,276.185 139.715 C 288.360 113.733,265.209 88.533,232.031 91.654 M258.516 299.494 C 242.250 313.997,227.532 321.652,207.872 325.836 C 201.287 327.237,178.472 326.651,168.359 324.821 C 159.024 323.131,157.230 324.849,164.674 328.351 C 181.511 336.272,201.282 337.048,218.945 330.482 C 238.388 323.254,250.453 315.018,259.529 302.779 C 263.719 297.129,263.169 295.346,258.516 299.494 " stroke="none" fill="#ffffff" fill-rule="evenodd">
</path>
<path id="path1" d="M33.984 0.258 C 18.192 2.768,5.578 13.982,1.098 29.492 L 0.195 32.617 0.195 199.609 C 0.195 362.531,0.213 366.673,0.939 369.531 C 4.789 384.692,16.679 396.136,31.827 399.262 C 36.503 400.227,361.871 400.404,367.188 399.444 C 382.161 396.741,394.023 386.000,398.713 370.898 L 399.805 367.383 399.805 200.391 L 399.805 33.398 398.925 30.204 C 394.969 15.846,385.135 5.698,370.898 1.285 L 367.383 0.195 201.172 0.149 C 109.756 0.124,34.521 0.173,33.984 0.258 M241.992 58.400 C 269.280 61.821,291.265 76.959,297.474 96.602 C 299.177 101.988,298.582 105.631,296.697 101.368 C 293.074 93.177,278.182 79.294,267.426 74.081 C 228.994 55.455,176.042 75.771,148.084 119.868 C 118.789 166.075,108.343 215.038,116.433 268.231 C 122.946 311.057,150.465 339.164,187.679 340.999 C 195.933 341.406,198.912 342.052,195.954 342.794 C 194.002 343.284,175.799 342.688,172.266 342.018 C 145.459 336.936,123.470 320.976,113.882 299.642 C 103.029 275.494,99.109 239.501,103.518 204.492 C 109.786 154.724,134.488 107.322,168.945 78.941 C 189.065 62.369,215.148 55.034,241.992 58.400 M244.449 72.677 C 272.585 75.728,294.196 96.557,294.277 120.703 C 294.343 140.237,281.301 160.621,265.115 166.280 C 262.167 167.310,256.602 167.759,256.283 166.992 C 256.119 166.596,256.861 166.187,262.988 163.295 C 277.141 156.613,287.623 133.719,283.676 118.109 C 275.206 84.616,231.483 75.435,194.531 99.390 C 167.011 117.232,140.257 159.126,130.532 199.610 C 125.967 218.611,124.964 204.605,129.342 183.008 C 140.967 125.668,169.372 88.959,212.109 76.044 C 223.139 72.711,234.170 71.562,244.449 72.677 M246.967 92.402 C 276.280 97.460,288.251 122.784,272.444 146.297 C 264.300 158.411,249.476 165.614,240.039 162.041 C 237.245 160.983,237.561 159.384,240.511 159.651 C 248.333 160.361,259.183 153.476,265.383 143.871 C 278.799 123.084,266.968 104.264,239.844 103.245 C 208.913 102.083,178.835 129.569,162.178 174.219 C 146.727 215.634,147.032 268.442,162.862 292.692 C 176.661 313.830,211.091 317.156,244.275 300.557 C 247.894 298.747,251.083 297.266,251.362 297.266 C 252.460 297.266,252.293 298.444,251.060 299.397 C 227.326 317.742,200.354 324.088,177.897 316.612 C 148.598 306.857,134.502 269.254,140.189 216.016 C 148.244 140.603,197.285 83.830,246.967 92.402 M262.416 298.096 C 263.011 301.186,248.329 315.839,239.648 320.819 C 212.022 336.668,187.575 339.124,164.674 328.351 C 157.230 324.849,159.024 323.131,168.359 324.821 C 178.472 326.651,201.287 327.237,207.872 325.836 C 227.532 321.652,242.250 313.997,258.516 299.494 C 261.009 297.272,262.177 296.853,262.416 298.096 " stroke="none" fill="#a1d044" fill-rule="evenodd">
</path>
</g>
</svg>