<svg id="svg" version="1.1" width="400" height="400" viewBox="0 0 400 400" xmlns="http://www.w3.org/2000/svg" xmlns:xlink="http://www.w3.org/1999/xlink" ><g id="svgg"><path id="path0" d="M220.081 57.814 C 195.480 60.364,178.487 68.732,158.648 88.068 C 108.406 137.034,87.752 225.046,110.751 292.173 C 120.377 320.267,145.313 339.113,177.930 342.944 C 185.034 343.779,196.875 343.410,196.875 342.355 C 196.875 341.430,196.018 341.272,189.281 340.954 C 174.658 340.264,167.377 338.333,157.043 332.406 C 126.435 314.850,111.907 278.411,114.141 224.805 C 116.280 173.473,141.361 117.259,173.639 91.452 C 208.235 63.792,248.648 59.396,276.942 80.217 C 284.322 85.647,294.274 96.445,296.528 101.465 C 299.205 107.430,299.608 101.615,296.994 94.727 C 287.671 70.151,254.525 54.243,220.081 57.814 M226.044 72.707 C 194.482 76.764,166.008 97.329,148.362 128.812 C 136.452 150.061,126.831 182.908,126.776 202.505 C 126.748 212.534,127.642 211.879,130.726 199.609 C 140.397 161.131,164.614 121.334,189.453 103.103 C 224.544 77.347,267.945 81.398,281.292 111.675 C 289.623 130.576,279.076 156.623,259.866 164.586 C 253.884 167.065,254.061 168.483,260.243 167.608 C 271.359 166.035,282.253 156.908,288.972 143.538 C 308.236 105.206,273.899 66.557,226.044 72.707 M230.273 91.642 C 198.018 96.393,169.673 122.942,152.746 164.258 C 134.814 208.027,134.039 265.328,150.988 294.336 C 169.242 325.577,210.227 328.638,248.438 301.614 C 255.680 296.492,253.355 295.794,244.253 300.358 C 211.252 316.908,177.405 313.766,163.190 292.834 C 148.016 270.490,146.897 219.748,160.681 179.102 C 171.721 146.550,191.371 120.385,212.906 109.561 C 239.531 96.180,270.703 105.548,270.703 126.932 C 270.703 142.413,255.185 159.429,241.089 159.407 L 237.841 159.401 237.964 160.462 C 238.375 164.032,250.238 163.715,257.643 159.937 C 279.753 148.655,286.453 120.900,271.100 104.194 C 262.825 95.191,244.478 89.550,230.273 91.642 M258.528 299.165 C 232.211 323.172,206.199 330.481,168.163 324.557 C 158.796 323.098,156.690 324.658,163.477 328.030 C 179.380 335.930,199.370 337.328,216.016 331.705 C 235.903 324.987,249.928 315.895,259.006 303.835 C 263.826 297.432,263.536 294.597,258.528 299.165 " stroke="none" fill="#a1d044" fill-rule="evenodd"></path></g></svg>